<svg width="538" height="467" viewBox="0 0 538 467" fill="none" xmlns="http://www.w3.org/2000/svg">
<g clip-path="url(#clip0)">
<path d="M480.171 227.28C480.921 228.44 482.171 228.94 483.171 229.65C491.57 235.455 499.186 242.319 505.831 250.07C514.051 259.78 518.101 271.16 519.321 283.65C519.481 285.33 520.321 285.65 521.531 286.15C526.331 288.07 529.301 291.89 531.531 296.28C532.571 298.503 532.787 301.023 532.141 303.39C530.481 310.84 526.611 316.54 519.631 319.93C517.971 320.74 516.341 321.64 514.631 322.4C513.551 322.88 513.401 323.4 513.841 324.53C515.196 327.86 515.846 331.435 515.75 335.029C515.654 338.623 514.813 342.157 513.281 345.41C511.111 350.28 507.991 353.94 502.871 355.96C495.411 358.8 487.661 360.812 479.761 361.96C478.677 362.049 477.633 362.409 476.726 363.009C475.819 363.609 475.077 364.428 474.571 365.39C470.461 372.72 464.491 378.32 457.621 383C450.121 388.12 441.841 391.71 433.621 395.42C418.341 402.32 402.871 408.75 386.771 413.53C385.659 413.797 384.667 414.427 383.951 415.32C382.754 416.733 381.383 417.99 379.871 419.06C349.399 441.775 313.99 456.968 276.531 463.4C256.66 466.933 236.415 467.877 216.301 466.21C138.301 459.72 71.061 417.27 32.771 353.55C17.0799 327.496 6.77657 298.558 2.47098 268.45C0.484409 255.399 -0.295554 242.194 0.140981 229C2.36098 172.83 21.921 123.49 59.001 81.3499C91.511 44.4099 132.001 20.1899 179.541 7.62994C192.546 4.25027 205.819 2.00189 219.211 0.909941C266.226 -3.18064 313.402 6.7026 354.821 29.3199C355.631 29.7599 356.431 30.2399 357.251 30.6599C360.679 32.5221 364.674 33.0561 368.471 32.1599C387.581 28.0599 405.961 30.7299 423.401 39.5299C428.151 41.9559 432.646 44.8503 436.821 48.1699C446.491 55.7999 452.271 65.8499 454.961 77.7499C455.46 80.7225 455.591 83.7453 455.351 86.7499C455.351 88.2699 455.871 88.7499 457.351 88.7499C462.674 89.0031 467.922 90.1001 472.901 91.9999C479.901 94.6399 487.021 97.1599 493.451 101.17C498.081 104.06 502.071 107.48 503.511 113.04C503.911 114.6 505.041 115.21 506.411 115.66C508.721 116.4 511.071 117.09 513.301 118.03C518.191 120.03 521.761 123.4 522.471 128.88C522.701 130.7 523.781 131.15 525.021 131.69C529.091 133.47 531.901 136.32 532.891 140.75C533.408 142.784 533.363 144.92 532.761 146.93C532.503 147.69 532.442 148.502 532.582 149.292C532.721 150.083 533.058 150.825 533.561 151.45C539.351 160.17 538.481 168.85 531.091 176.53C530.625 176.922 530.283 177.44 530.106 178.022C529.928 178.604 529.923 179.225 530.091 179.81C530.593 182.147 530.429 184.579 529.618 186.827C528.806 189.076 527.38 191.052 525.501 192.53C521.889 195.653 517.47 197.695 512.751 198.42C512.076 198.448 511.423 198.664 510.864 199.044C510.306 199.424 509.865 199.952 509.591 200.57C505.671 208.57 499.741 214.81 492.861 220.28C489.88 222.483 486.63 224.298 483.191 225.68C482.09 226.012 481.064 226.555 480.171 227.28ZM445.841 194.47C446.287 194.589 446.755 194.611 447.21 194.533C447.666 194.456 448.099 194.281 448.481 194.02C447.549 193.568 446.488 193.455 445.481 193.7C443.761 193.49 442.021 193.4 440.331 193.05C432.851 191.52 427.501 187.39 425.021 180C423.373 175.401 422.935 170.456 423.751 165.64C424.825 159.826 427.012 154.275 430.191 149.29C432.511 145.645 436.008 142.904 440.101 141.52C445.386 139.464 451.147 138.954 456.711 140.05C467.441 142.15 474.961 147.59 479.361 157.8C483.051 166.35 481.631 173.8 476.041 180.8C472.971 184.65 469.041 187.49 465.041 190.27C464.472 190.402 463.935 190.646 463.462 190.99C462.99 191.334 462.592 191.769 462.291 192.27C464.011 191.79 465.881 192.1 467.461 191.04C482.771 187.98 497.991 184.52 513.011 180.22C516.671 179.17 520.471 178.61 524.011 177.16C534.611 172.84 537.211 158.92 528.941 151.22C525.428 148.034 521.361 145.519 516.941 143.8C501.791 137.63 485.941 135.8 469.701 135.8C457.101 135.8 444.901 138.03 432.701 140.8C415.591 144.72 401.701 153.62 389.591 165.97C387.761 167.84 386.221 169.87 386.281 172.6C386.298 176.553 385.307 180.446 383.401 183.91C382.831 185.04 382.401 186.27 381.901 187.41C381.401 188.55 381.681 189.2 383.021 189.61C387.341 190.92 391.731 191.87 396.161 192.75C412.52 195.994 429.296 196.574 445.841 194.47ZM342.641 313.33C345.051 313.47 347.431 313.96 349.871 313.97C365.351 314.07 380.871 314.12 396.311 313.51C405.541 313.14 414.791 313.51 424.001 312.59C429.557 312.462 435.102 312.028 440.611 311.29C448.916 310.506 457.073 308.577 464.851 305.56C473.231 302.2 481.501 298.56 489.851 295.19C497.901 291.96 505.931 288.66 514.211 286.03C515.271 285.69 516.451 285.58 516.211 283.81C514.741 273.34 511.641 263.5 505.211 254.96C497.841 245.24 488.591 237.59 478.631 230.69C477.792 230.013 476.795 229.56 475.734 229.373C474.672 229.186 473.581 229.271 472.561 229.62C460.391 233.24 447.881 234.76 435.241 235.2C425.628 235.492 416.006 235.048 406.461 233.87C403.711 233.54 400.971 233.04 398.251 232.48C397.081 232.24 395.901 231.59 396.421 230.09C396.502 229.807 396.645 229.545 396.84 229.323C397.034 229.101 397.276 228.925 397.546 228.808C397.816 228.69 398.11 228.634 398.404 228.643C398.699 228.652 398.988 228.726 399.251 228.86C399.471 228.93 399.671 229.04 399.901 229.09C410.481 231.53 421.281 231.6 432.031 231.68C437.59 231.701 443.145 231.367 448.661 230.68C458.446 229.636 468.085 227.51 477.401 224.34C490.851 219.55 500.551 210.63 507.021 198.06C507.388 197.214 507.982 196.486 508.738 195.956C509.493 195.427 510.38 195.117 511.301 195.06C516.196 194.617 520.788 192.498 524.301 189.06C525.534 187.924 526.413 186.457 526.833 184.834C527.254 183.211 527.197 181.502 526.671 179.91C524.431 180.61 522.471 181.32 520.461 181.81C505.631 185.43 490.951 189.63 475.981 192.73C461.981 195.63 448.061 198.19 433.801 198.94C417.006 199.71 400.195 197.82 383.991 193.34C381.501 192.68 381.121 192.84 380.911 195.41C380.738 198.529 380.313 201.629 379.641 204.68C379.073 207.364 377.913 209.887 376.245 212.065C374.577 214.244 372.444 216.022 370.001 217.27C361.288 221.901 351.665 224.567 341.811 225.08C335.921 225.42 330.011 225.49 324.121 225.97C314.321 226.77 304.511 227.57 294.691 228.18C285.668 228.73 276.616 228.56 267.621 227.67C262.324 227.234 257.074 226.34 251.931 225C244.231 222.87 236.791 219.94 229.111 217.74C228.449 217.533 227.801 217.282 227.171 216.99C226.231 216.58 225.611 215.93 225.951 214.83C226.291 213.73 227.111 213.78 227.951 213.83C228.525 213.89 229.092 214.011 229.641 214.19C233.061 215.28 236.481 216.35 239.871 217.5C248.201 220.34 256.561 222.86 265.401 223.86C278.021 225.3 290.601 224.95 303.211 224.09C311.981 223.5 320.721 222.47 329.521 222.16C335.891 222.08 342.251 221.64 348.571 220.84C356.043 219.788 363.228 217.248 369.701 213.37C371.679 212.135 373.308 210.414 374.431 208.37C376.691 204.52 376.831 200.27 377.181 195.97C376.821 195.97 376.561 195.89 376.381 195.97C375.381 196.51 374.331 197.05 373.381 197.65C364.121 203.35 354.041 207.04 343.551 209.65C334.351 211.96 324.941 213.26 315.631 215.09C308.631 216.46 301.501 217.56 294.261 217.26C289.971 217.08 285.751 216.26 281.481 215.94C262.721 214.67 246.191 207.11 230.171 198C223.441 194.18 216.371 191.37 208.401 192.22C206.341 192.44 204.311 192.97 202.271 193.37C196.131 194.58 190.441 192.31 187.781 187.6C185.781 184.08 186.541 180.78 189.861 178.53C192.697 176.715 195.859 175.469 199.171 174.86C205.841 173.42 212.541 172.09 219.221 170.72C230.296 168.552 240.563 163.384 248.901 155.78C259.951 145.78 273.131 139.78 287.681 136.59C301.826 133.453 316.333 132.259 330.801 133.04C338.535 133.516 346.228 134.505 353.831 136C359.131 137 364.331 138.4 369.561 139.94C369.441 132.57 365.561 127.42 358.881 125.79C355.06 124.831 351.148 124.285 347.211 124.16C336.431 123.87 325.681 124.73 314.911 124.83C312.711 124.83 310.521 125.02 308.321 125.18C298.491 125.94 288.851 127.95 279.211 129.84C267.101 132.21 255.961 136.75 246.611 145.13C240.905 150.385 234.668 155.034 228.001 159C221.525 162.85 214.577 165.845 207.331 167.91C206.091 168.25 204.331 169.24 203.821 167.24C203.311 165.24 205.341 165.29 206.531 164.84C208.911 163.95 211.381 163.28 213.731 162.32C224.641 157.72 234.67 151.26 243.371 143.23C250.617 136.688 259.199 131.799 268.521 128.9C274.962 127.008 281.519 125.535 288.151 124.49C296.21 122.897 304.364 121.828 312.561 121.29C322.281 120.84 332.011 120.79 341.741 120.55C342.461 120.55 343.401 120.95 343.841 119.91C343.661 119.15 343.011 118.82 342.481 118.38C336.941 113.82 331.301 109.38 325.881 104.66C314.831 95.0899 301.791 90.4499 287.481 89.4999C273.933 88.6276 260.33 89.6644 247.071 92.5799C228.867 96.4465 211.843 104.583 197.401 116.32C196.537 116.915 195.847 117.73 195.401 118.68C195.001 119.68 194.271 120.22 193.221 119.68C192.981 119.572 192.765 119.418 192.585 119.226C192.405 119.034 192.264 118.809 192.171 118.562C192.078 118.316 192.035 118.054 192.043 117.791C192.052 117.528 192.112 117.27 192.221 117.03C192.625 115.935 193.359 114.991 194.321 114.33C199.411 110.51 204.321 106.46 209.911 103.33C224.69 94.7618 241.047 89.2653 258.001 87.1699C269.781 85.7799 281.551 85.0799 293.331 86.6599C305.361 88.1192 316.747 92.9013 326.211 100.47C326.744 100.917 327.309 101.324 327.901 101.69C328.981 102.33 329.901 101.69 330.821 101.2C331.741 100.71 331.441 99.8499 331.271 99.0799C331.101 98.3099 330.911 97.4999 330.741 96.7099C327.901 83.7099 322.271 72.1999 312.071 63.3499C305.344 57.48 298.033 52.3162 290.251 47.9399C276.041 40.0099 260.861 37.2799 244.681 38.9399C234.351 40.0199 224.491 42.9399 214.581 45.6399C211.132 46.6631 207.854 48.1895 204.851 50.1699C197.211 55.0099 189.731 60.0599 182.291 65.1699C174.609 70.3883 167.893 76.9019 162.441 84.4199C159.211 88.9399 156.211 93.6499 152.631 97.8799C147.101 104.42 143.081 111.79 139.361 119.4C138.702 120.877 138.154 122.401 137.721 123.96C137.639 124.368 137.4 124.727 137.056 124.96C136.712 125.194 136.29 125.284 135.881 125.21C135.648 125.177 135.424 125.096 135.223 124.972C135.022 124.849 134.849 124.686 134.714 124.493C134.579 124.299 134.485 124.081 134.438 123.85C134.391 123.619 134.392 123.38 134.441 123.15C134.61 122.122 134.891 121.116 135.281 120.15C138.353 112.509 142.447 105.321 147.451 98.7799C150.451 94.9499 153.311 91.0299 156.131 87.0599C161.631 79.2999 167.461 71.8099 175.191 66.0599C177.311 64.4699 179.781 63.3099 181.401 61.0599C185.061 59.5799 187.871 56.7999 191.151 54.7399C193.251 53.4199 195.631 52.4299 197.301 50.4699C198.622 50.0621 199.841 49.3806 200.881 48.4699C205.703 45.1616 211.067 42.7246 216.731 41.2699C218.191 41.1086 219.608 40.678 220.911 39.9999C221.366 40.0604 221.826 40.0604 222.281 39.9999C229.126 37.8798 236.158 36.4198 243.281 35.6399C250.064 34.822 256.918 34.7784 263.711 35.5099C276.061 36.9899 287.331 41.6799 297.761 48.4499C302.711 51.6599 307.341 55.2899 312.081 58.7899C313.171 59.9299 314.081 59.7899 315.381 58.7899C326.221 50.7899 337.951 44.2699 350.001 38.2999C352.001 37.2999 354.061 36.5199 356.271 35.5599C355.721 35.0999 355.481 34.8499 355.201 34.6599C354.521 34.2299 353.821 33.8099 353.111 33.4199C334.824 23.3802 315.282 15.8172 295.001 10.9299C279.808 7.2632 264.281 5.14902 248.661 4.61994C240.106 4.31946 231.54 4.473 223.001 5.07994C189.377 7.38564 156.639 16.883 127.001 32.9299C103.603 45.5262 82.5102 61.9998 64.621 81.6499C47.1012 100.861 32.9431 122.885 22.741 146.8C12.0841 171.652 5.98689 198.218 4.74098 225.23C3.96782 241.666 5.02769 258.138 7.90098 274.34C12.9404 303.167 23.5663 330.73 39.181 355.48C47.6609 368.908 57.5211 381.412 68.601 392.79C73.5051 398.038 78.8258 402.88 84.511 407.27C86.401 409.49 88.861 411.05 91.111 412.84C121.382 436.644 157.139 452.477 195.111 458.89C205.721 460.67 216.371 462.11 227.111 462.16C236.021 462.16 244.921 462.38 253.841 461.63C262.25 460.979 270.621 459.905 278.921 458.41C292.34 455.913 305.519 452.262 318.311 447.5C336.874 440.559 354.516 431.367 370.841 420.13C371.921 419.39 373.211 418.75 373.771 417.38C373.401 417.21 373.181 417.01 373.011 417.04C362.114 419.17 351.091 420.593 340.011 421.3C331.011 421.89 322.011 422.75 313.011 423.15C307.111 423.41 301.231 423.84 295.331 424.09C291.761 424.24 288.151 424.27 284.601 424.73C276.791 425.73 268.931 426.15 261.091 426.46C243.091 427.15 225.191 426.46 207.241 425.87C207.011 425.87 206.781 425.87 206.551 425.87C195.961 424.93 185.321 424.52 174.771 423.17C170.191 422.58 165.631 421.83 161.061 421.17C159.431 420.92 158.161 420.27 158.201 418.33C158.681 417.63 159.361 416.91 160.201 417.41C162.111 418.57 164.201 418.29 166.271 418.63C176.911 420.41 187.661 421.08 198.401 421.77C209.951 422.52 221.531 422.77 233.111 423.17C246.082 423.577 259.066 423.323 272.011 422.41C282.401 421.69 292.781 420.69 303.201 420.34C307.831 420.18 312.451 419.9 317.071 419.58C325.151 419.01 333.231 418.28 341.311 417.77C352.54 417.102 363.695 415.507 374.661 413C400.331 407 424.161 396.27 447.661 384.84C454.899 381.372 461.362 376.478 466.661 370.45C468.741 368.3 470.418 365.794 471.611 363.05C460.761 362.91 450.291 364.88 439.761 366.33C422.891 368.64 406.021 370.26 388.921 369.8C373.061 369.37 357.211 369.09 341.401 367.62C329.071 366.48 316.701 365.69 304.401 364.46C292.412 363.292 280.361 362.898 268.321 363.28C259.321 363.55 250.321 364.28 241.231 364.07C234.874 363.981 228.528 363.497 222.231 362.62C217.721 361.94 213.391 360.62 209.771 357.7C205.551 354.32 203.081 350.03 203.671 344.43C203.909 341.766 204.627 339.168 205.791 336.76C210.103 327.996 216.24 320.256 223.791 314.06C229.47 309.386 236.637 306.902 243.991 307.06C261.481 307.06 278.991 306.74 296.361 309.17C305.991 310.52 315.641 311.71 325.361 312.37C331.081 312.74 336.831 313.64 342.641 313.33ZM389.281 366.19C400.23 366.488 411.187 366.063 422.081 364.92C429.311 364.08 436.561 363.39 443.751 362.18C451.949 360.694 460.238 359.759 468.561 359.38C478.39 358.928 488.118 357.2 497.501 354.24C502.211 352.83 506.631 350.87 509.101 346.1C512.101 340.21 513.251 334.1 511.371 327.66C510.491 324.59 509.781 324.12 506.611 324.87C502.782 325.825 498.907 326.586 495.001 327.15C482.161 328.84 469.391 331 456.621 333.15C444.181 335.23 431.701 337.07 419.091 337.52C407.091 337.94 395.031 338.17 383.011 338.98C373.661 339.62 364.271 339.83 354.941 340.65C342.511 341.74 330.211 340.65 317.941 339.28C310.941 338.49 303.941 337.7 296.891 337.03C287.891 336.18 278.891 335.42 269.891 334.66C258.891 333.74 247.891 333.66 237.381 337.84C237.063 337.996 236.727 338.114 236.381 338.19C236.099 338.261 235.802 338.238 235.535 338.124C235.268 338.01 235.045 337.812 234.901 337.56C234.751 337.311 234.672 337.026 234.672 336.735C234.672 336.444 234.751 336.159 234.901 335.91C235.298 335.331 235.891 334.915 236.571 334.74C239.255 333.661 242.021 332.795 244.841 332.15C255.531 329.93 266.271 330.77 277.011 331.67C283.461 332.21 289.901 332.89 296.351 333.54C301.751 334.093 307.154 334.67 312.561 335.27C320.831 336.21 329.111 337.12 337.431 337.56C349.731 338.22 361.961 336.78 374.191 336.04C386.671 335.28 399.191 334.49 411.641 334.28C423.442 334.069 435.214 333.034 446.871 331.18C464.121 328.48 481.341 325.63 498.611 323.01C506.005 322.082 513.142 319.7 519.611 316C525.031 312.75 527.611 307.82 528.881 302C529.174 300.388 528.924 298.725 528.171 297.27C524.731 289.92 519.731 287.81 512.051 290.45C511.831 290.52 511.601 290.57 511.391 290.65C500.231 294.85 489.041 299 478.241 304.04C462.544 311.266 445.578 315.33 428.311 316C416.861 316.54 405.411 317 393.951 317.19C380.051 317.43 366.151 317.37 352.241 317.42C350.391 317.42 348.531 317.42 346.691 317.27C338.381 316.67 330.061 316.27 321.771 315.51C313.771 314.8 305.891 313.87 297.981 312.86C290.309 311.755 282.586 311.037 274.841 310.71C264.181 310.42 253.521 310.54 242.841 310.53C236.887 310.546 231.114 312.576 226.461 316.29C220.271 321.02 215.711 327.1 211.461 333.44C209.47 336.437 208.081 339.793 207.371 343.32C206.982 344.962 206.996 346.673 207.412 348.309C207.828 349.944 208.634 351.454 209.761 352.71C212.444 355.799 216.117 357.86 220.151 358.54C231.591 360.88 243.151 360.78 254.741 360.39C265.491 360.02 276.211 359.28 287.001 359.7C298.111 360.15 309.171 361.21 320.221 362.25C332.551 363.4 344.881 364.46 357.221 365.25C368.051 366 378.941 366.38 389.281 366.19ZM446.551 87.9999C447.101 87.9999 447.911 87.9999 448.721 87.9999C451.881 88.0699 451.811 88.0699 451.891 84.7499C452.081 76.9599 449.481 69.9999 445.631 63.4099C441.001 55.4699 434.171 49.8699 426.391 45.2799C405.944 33.2199 384.351 30.6266 361.611 37.4999C357.074 38.8969 352.676 40.7078 348.471 42.9099C338.361 48.0553 328.545 53.7608 319.071 59.9999C316.211 61.9099 316.171 62.1899 318.461 64.6499C325.297 71.9814 330.162 80.927 332.601 90.6499C333.228 93.1099 333.794 95.5866 334.301 98.0799C334.621 99.6799 335.361 100.23 336.971 99.7599C338.851 99.1999 340.771 98.7599 342.691 98.3199C363.816 93.7199 385.218 90.4997 406.761 88.6799C417.141 87.8466 427.544 87.5133 437.971 87.6799C440.741 87.6099 443.511 87.8299 446.551 87.9999ZM226.551 192.1C232.721 195.81 239.181 198.87 245.481 202.24C252.633 206.044 260.285 208.825 268.211 210.5C273.981 211.75 279.841 212.36 285.691 213.11C291.982 214.061 298.372 214.165 304.691 213.42C315.921 211.88 327.021 209.56 338.151 207.42C348.717 205.353 358.915 201.723 368.411 196.65C373.581 193.95 377.761 190.36 379.411 184.41C379.921 182.54 381.021 180.83 381.711 178.99C383.951 172.99 382.711 167.31 379.311 162.15C377.231 158.95 373.761 157.31 370.201 156.15C365.921 154.75 361.621 153.37 357.271 152.22C341.271 147.98 325.141 144.34 308.321 146.37C299.921 147.215 291.599 148.713 283.431 150.85C267.061 155.45 253.201 164.55 240.171 175.11C238.854 176.244 237.661 177.514 236.611 178.9C233.981 182.13 231.401 185.41 228.851 188.7C228.051 189.8 227.001 190.73 226.561 192.08L226.551 192.1ZM331.741 104.85C336.601 109.04 341.081 112.68 345.301 116.6C348.481 119.6 351.891 121.6 356.301 121.6C357.341 121.672 358.367 121.884 359.351 122.23C364.861 123.91 369.601 126.52 371.601 132.46C372.601 135.41 372.011 135.46 375.671 134.18C381.761 131.99 387.781 129.54 394.001 127.78C411.216 122.782 428.811 119.203 446.611 117.08C461.331 115.42 476.071 114.08 490.881 113.74C493.881 113.67 496.881 113.74 499.761 113.74C499.873 113.437 499.913 113.112 499.878 112.791C499.844 112.47 499.735 112.162 499.561 111.89C498.231 108.58 495.561 106.51 492.661 104.79C479.311 96.8999 465.031 91.8699 449.391 91.5099C441.391 91.3299 433.441 90.9299 425.451 91.2099C415.621 91.5499 405.771 91.6799 396.011 92.9899C380.011 95.1499 363.931 97.2299 348.091 100.66C342.575 101.762 337.12 103.153 331.751 104.83L331.741 104.85ZM385.551 165.13C388.682 161.794 392.022 158.661 395.551 155.75C400.661 151.56 405.811 147.46 411.801 144.52C419.245 141.034 427.067 138.42 435.111 136.73C440.813 135.234 446.596 134.065 452.431 133.23C460.158 132.495 467.922 132.235 475.681 132.45C486.453 132.484 497.169 133.995 507.531 136.94C514.461 138.94 521.131 141.51 527.131 145.63C529.021 146.93 529.531 146.63 529.611 144.46C529.751 140.55 528.381 137.4 524.761 135.56C521.516 133.777 518.073 132.384 514.501 131.41C504.151 128.9 493.681 127 482.971 126.94C478.111 126.94 473.241 127.05 468.371 126.94C456.559 126.643 444.767 128.079 433.371 131.2C417.051 135.58 400.811 140.2 385.171 146.66C384.655 146.91 384.106 147.085 383.541 147.18C383.31 147.207 383.076 147.171 382.863 147.078C382.65 146.984 382.466 146.835 382.33 146.647C382.193 146.459 382.109 146.237 382.087 146.006C382.064 145.774 382.104 145.541 382.201 145.33C382.347 144.95 382.579 144.61 382.88 144.336C383.18 144.062 383.54 143.861 383.931 143.75C385.621 143.01 387.311 142.25 389.041 141.58C403.512 136.015 418.318 131.362 433.371 127.65C442.831 125.24 452.371 123.48 462.131 123.54C466.761 123.54 471.401 123.54 476.031 123.41C486.22 123.232 496.4 124.13 506.401 126.09C510.561 126.9 514.651 127.99 518.871 129.01C518.221 125.59 517.371 124.01 514.541 122.59C508.611 119.67 502.471 117.26 495.721 117.16C491.781 117.1 487.831 117.16 483.911 117.38C475.601 117.93 467.291 118.49 459.001 119.25C450.241 120.06 441.531 121.19 432.841 122.51C423.461 123.95 414.261 126.26 405.031 128.41C395.164 130.887 385.475 134.027 376.031 137.81C374.531 138.38 373.121 138.73 373.721 141.17C374.451 144.17 372.971 145.17 369.921 144C358.691 139.66 346.921 137.84 335.021 136.94C320.348 135.731 305.578 136.583 291.141 139.47C275.491 142.7 261.481 149.02 249.531 159.75C245.061 163.96 239.881 167.346 234.231 169.75C225.231 173.35 215.841 175.19 206.421 177.01C201.761 177.92 197.051 178.56 192.811 180.89C189.631 182.64 189.301 184.57 191.811 187.26C194.511 190.2 197.971 190.77 201.691 190C204.384 189.34 207.127 188.898 209.891 188.68C213.834 188.53 217.771 189.113 221.501 190.4C221.749 190.531 222.021 190.61 222.301 190.633C222.581 190.656 222.862 190.622 223.129 190.533C223.395 190.444 223.641 190.303 223.851 190.117C224.061 189.93 224.231 189.704 224.351 189.45C225.44 187.809 226.633 186.239 227.921 184.75C231.241 180.89 233.631 176.2 237.561 172.92C246.471 165.49 255.901 158.75 266.391 153.69C282.091 146.12 298.921 143.32 316.131 142.32C321.811 141.99 327.431 142.81 333.061 143.54C346.671 145.29 359.781 149.04 372.711 153.41C377.911 155.16 382.081 158.41 384.311 163.72C384.39 164.036 384.546 164.328 384.764 164.57C384.981 164.812 385.255 164.998 385.561 165.11L385.551 165.13ZM462.841 155.66C462.93 154.374 462.57 153.096 461.822 152.046C461.074 150.996 459.985 150.237 458.741 149.9C456.611 149.15 454.351 149.9 452.621 151.95C450.151 154.87 450.471 158.23 453.531 161.56C453.955 162.073 454.485 162.488 455.085 162.777C455.685 163.065 456.34 163.22 457.006 163.23C457.671 163.241 458.331 163.107 458.94 162.837C459.548 162.568 460.091 162.17 460.531 161.67C462.012 160.009 462.837 157.865 462.851 155.64L462.841 155.66ZM447.841 151.6C447.771 149.66 446.351 147.81 444.951 147.83C443.191 147.83 441.831 149.62 441.951 151.74C442.071 153.86 443.241 155.32 444.951 155.26C445.387 155.215 445.81 155.084 446.194 154.874C446.578 154.664 446.917 154.379 447.19 154.036C447.463 153.693 447.665 153.3 447.783 152.878C447.902 152.456 447.935 152.015 447.881 151.58L447.841 151.6ZM452.001 145.69C450.891 145.69 449.721 147.15 449.701 148.43C449.668 148.69 449.693 148.954 449.774 149.204C449.855 149.453 449.99 149.682 450.17 149.873C450.35 150.064 450.569 150.213 450.813 150.309C451.057 150.406 451.319 150.447 451.581 150.43C452.215 150.352 452.797 150.036 453.207 149.546C453.617 149.056 453.826 148.428 453.791 147.79C453.797 147.28 453.62 146.786 453.291 146.396C452.962 146.007 452.504 145.749 452.001 145.67V145.69Z" fill="#070607"/>
<path d="M84.5499 407.27C78.8647 402.88 73.5441 398.038 68.6399 392.79C57.5601 381.412 47.6998 368.908 39.2199 355.48C23.6053 330.73 12.9793 303.167 7.93993 274.34C5.06663 258.138 4.00677 241.667 4.77993 225.23C6.02584 198.218 12.123 171.652 22.7799 146.8C32.9699 122.888 47.1144 100.864 64.6199 81.65C98.7105 44.332 143.83 18.8785 193.4 8.99997C203.175 7.07559 213.061 5.76635 223 5.07997C231.549 4.47197 240.124 4.31842 248.69 4.61997C264.3 5.15107 279.817 7.26524 295 10.93C315.283 15.8069 334.828 23.3598 353.12 33.39C353.83 33.78 354.53 34.2 355.21 34.63C355.49 34.82 355.73 35.07 356.28 35.53C354.07 36.53 351.99 37.28 350.01 38.27C337.96 44.27 326.23 50.76 315.39 58.76C314.12 59.7 313.18 59.86 312.09 58.76C312.09 57.27 313.36 56.63 314.17 55.7C317.81 51.52 320.04 46.62 319.57 41.13C319.286 37.8858 318.341 34.7341 316.793 31.8689C315.246 29.0038 313.128 26.4857 310.57 24.47C300.16 15.86 287.74 12.62 274.66 11.64C265.901 10.951 257.09 11.866 248.66 14.34C240.34 16.81 232.66 20.34 226.78 27.01C223.51 30.7 221.01 34.83 220.95 40.01C219.661 40.7426 218.247 41.2276 216.78 41.44C211.116 42.8947 205.752 45.3316 200.93 48.64C199.89 49.5507 198.67 50.2321 197.35 50.64C197.82 45.64 195.35 42.26 191.17 39.97C189.547 39.1054 187.829 38.4341 186.05 37.97C181.83 36.82 177.54 37.21 173.31 37.4C170.252 37.449 167.234 38.1075 164.434 39.337C161.633 40.5664 159.106 42.342 157 44.56C156.265 45.2945 155.682 46.1668 155.284 47.1268C154.886 48.0868 154.681 49.1158 154.681 50.155C154.681 51.1941 154.886 52.2231 155.284 53.1832C155.682 54.1432 156.265 55.0154 157 55.75C161.22 60.16 166.83 60.89 172.47 61.59C175.47 61.97 178.39 60.83 181.38 61.16C179.76 63.37 177.29 64.53 175.17 66.16C167.44 71.93 161.61 79.42 156.11 87.16C153.29 91.16 150.44 95.05 147.43 98.88C142.426 105.421 138.332 112.609 135.26 120.25C134.87 121.216 134.589 122.222 134.42 123.25C134.371 123.481 134.37 123.719 134.417 123.95C134.464 124.181 134.558 124.399 134.693 124.593C134.828 124.786 135.001 124.949 135.202 125.073C135.403 125.196 135.627 125.277 135.86 125.31C136.269 125.384 136.691 125.294 137.035 125.06C137.379 124.827 137.618 124.468 137.7 124.06C138.133 122.501 138.681 120.977 139.34 119.5C143.06 111.89 147.08 104.5 152.61 97.98C156.19 93.75 159.19 89.04 162.42 84.52C167.878 76.9886 174.605 70.4646 182.3 65.24C189.74 60.1 197.22 55.05 204.86 50.24C207.863 48.2595 211.141 46.7331 214.59 45.71C224.5 42.96 234.36 40.09 244.69 39.01C260.87 37.31 276.05 40.01 290.26 48.01C298.042 52.3863 305.353 57.55 312.08 63.42C322.28 72.27 327.91 83.76 330.75 96.78C330.92 97.57 331.11 98.35 331.28 99.15C331.45 99.95 331.83 100.77 330.83 101.27C329.83 101.77 328.99 102.4 327.91 101.76C327.318 101.394 326.753 100.987 326.22 100.54C316.756 92.9714 305.37 88.1892 293.34 86.73C281.56 85.15 269.79 85.85 258.01 87.24C241.09 89.3149 224.762 94.7769 210 103.3C204.44 106.45 199.5 110.5 194.41 114.3C193.448 114.961 192.714 115.905 192.31 117C192.201 117.24 192.141 117.498 192.132 117.761C192.124 118.024 192.167 118.286 192.26 118.532C192.353 118.779 192.493 119.004 192.674 119.196C192.854 119.388 193.07 119.542 193.31 119.65C194.36 120.22 195.09 119.65 195.49 118.65C195.936 117.7 196.626 116.885 197.49 116.29C211.911 104.584 228.903 96.4652 247.07 92.6C260.329 89.6844 273.932 88.6476 287.48 89.52C301.79 90.52 314.83 95.11 325.88 104.68C331.3 109.38 336.94 113.84 342.48 118.4C343.01 118.84 343.66 119.17 343.84 119.93C343.4 120.93 342.46 120.56 341.74 120.57C332.01 120.81 322.28 120.86 312.56 121.31C304.363 121.848 296.209 122.917 288.15 124.51C281.518 125.555 274.961 127.028 268.52 128.92C259.198 131.819 250.616 136.708 243.37 143.25C234.669 151.28 224.64 157.74 213.73 162.34C211.38 163.34 208.91 163.97 206.53 164.86C205.34 165.31 203.28 165.26 203.82 167.26C204.36 169.26 206.09 168.26 207.33 167.93C214.577 165.859 221.525 162.857 228 159C234.67 155.015 240.907 150.346 246.61 145.07C255.96 136.69 267.1 132.15 279.21 129.78C288.85 127.89 298.49 125.88 308.32 125.12C310.52 124.96 312.71 124.79 314.91 124.77C325.68 124.67 336.43 123.77 347.21 124.1C351.147 124.225 355.059 124.772 358.88 125.73C365.58 127.36 369.44 132.51 369.56 139.88C364.33 138.34 359.13 136.95 353.83 135.94C346.215 134.484 338.511 133.535 330.77 133.1C316.302 132.319 301.795 133.513 287.65 136.65C273.1 139.84 259.92 145.83 248.87 155.84C240.532 163.444 230.265 168.612 219.19 170.78C212.51 172.15 205.81 173.48 199.14 174.92C195.828 175.529 192.666 176.775 189.83 178.59C186.51 180.84 185.77 184.14 187.75 187.66C190.41 192.37 196.1 194.66 202.24 193.43C204.24 193.03 206.31 192.5 208.37 192.28C216.37 191.43 223.37 194.28 230.14 198.06C246.14 207.17 262.69 214.73 281.45 216C285.72 216.29 289.94 217.14 294.23 217.32C301.47 217.62 308.56 216.52 315.6 215.15C324.91 213.32 334.32 212.02 343.52 209.71C354.01 207.08 364.09 203.39 373.35 197.71C374.35 197.11 375.35 196.57 376.35 196.03C376.53 195.94 376.79 196.03 377.15 196.03C376.8 200.33 376.66 204.58 374.4 208.43C373.277 210.474 371.648 212.195 369.67 213.43C363.197 217.308 356.012 219.848 348.54 220.9C342.22 221.7 335.86 222.14 329.49 222.22C320.69 222.53 311.95 223.56 303.18 224.15C290.57 225.01 277.99 225.36 265.37 223.92C256.53 222.92 248.17 220.4 239.84 217.56C236.45 216.41 233.03 215.34 229.61 214.25C229.061 214.071 228.494 213.95 227.92 213.89C227.08 213.81 226.23 213.89 225.92 214.89C225.61 215.89 226.2 216.64 227.14 217.05C227.769 217.342 228.418 217.593 229.08 217.8C236.76 220 244.2 222.93 251.9 225.06C257.052 226.409 262.312 227.309 267.62 227.75C276.615 228.64 285.667 228.81 294.69 228.26C304.51 227.65 314.32 226.85 324.12 226.05C330.01 225.57 335.92 225.5 341.81 225.16C351.67 224.622 361.293 221.929 370 217.27C372.426 216.02 374.544 214.247 376.201 212.078C377.858 209.909 379.012 207.399 379.58 204.73C380.252 201.679 380.677 198.579 380.85 195.46C381.06 192.89 381.44 192.73 383.93 193.39C400.134 197.87 416.945 199.76 433.74 198.99C448 198.24 461.96 195.68 475.92 192.78C490.92 189.68 505.57 185.48 520.4 181.86C522.4 181.37 524.4 180.66 526.61 179.96C527.136 181.552 527.193 183.261 526.772 184.884C526.352 186.507 525.473 187.974 524.24 189.11C520.727 192.548 516.135 194.668 511.24 195.11C510.319 195.167 509.432 195.477 508.677 196.006C507.921 196.536 507.327 197.264 506.96 198.11C500.49 210.68 490.79 219.6 477.34 224.39C468.024 227.56 458.385 229.686 448.6 230.73C443.084 231.417 437.529 231.751 431.97 231.73C421.22 231.65 410.42 231.58 399.84 229.14C399.61 229.09 399.41 228.98 399.19 228.91C398.927 228.776 398.638 228.702 398.343 228.693C398.049 228.684 397.755 228.74 397.485 228.858C397.215 228.975 396.973 229.151 396.779 229.373C396.584 229.595 396.441 229.857 396.36 230.14C395.84 231.64 397.02 232.29 398.19 232.53C400.91 233.09 403.65 233.59 406.4 233.92C415.945 235.098 425.567 235.542 435.18 235.25C447.82 234.81 460.33 233.25 472.5 229.67C473.52 229.321 474.611 229.236 475.673 229.423C476.734 229.61 477.731 230.063 478.57 230.74C488.57 237.64 497.78 245.29 505.15 255.01C511.62 263.55 514.72 273.39 516.15 283.86C516.4 285.63 515.22 285.74 514.15 286.08C505.87 288.71 497.84 292.01 489.79 295.24C481.42 298.61 473.15 302.24 464.79 305.61C457.012 308.627 448.855 310.556 440.55 311.34C435.041 312.078 429.496 312.512 423.94 312.64C423.733 310.118 423.277 307.623 422.58 305.19C420.2 294.19 415.01 284.95 405.76 278.29C399.221 273.387 391.102 271.069 382.96 271.78C373.25 272.68 364.85 277.05 357.96 283.86C351.959 289.793 347.402 297.026 344.64 305C343.64 307.7 342.64 310.41 342.64 313.35C336.83 313.66 331.08 312.76 325.31 312.35C315.61 311.69 305.96 310.5 296.31 309.15C278.94 306.72 261.45 307 244 307C236.646 306.842 229.479 309.326 223.8 314C216.249 320.196 210.112 327.936 205.8 336.7C204.636 339.108 203.918 341.706 203.68 344.37C203.09 349.97 205.56 354.26 209.78 357.64C213.4 360.53 217.73 361.88 222.24 362.56C228.537 363.437 234.883 363.921 241.24 364.01C250.24 364.23 259.3 363.49 268.33 363.22C280.369 362.838 292.421 363.232 304.41 364.4C316.73 365.63 329.1 366.4 341.41 367.56C357.22 369.03 373.07 369.31 388.93 369.74C406.03 370.2 422.93 368.58 439.77 366.27C450.3 364.82 460.77 362.85 471.62 362.99C470.427 365.734 468.75 368.24 466.67 370.39C461.371 376.418 454.908 381.312 447.67 384.78C424.12 396.21 400.29 406.97 374.67 412.94C363.723 415.434 352.588 417.019 341.38 417.68C333.3 418.19 325.22 418.92 317.14 419.49C312.52 419.81 307.9 420.09 303.27 420.25C292.85 420.6 282.47 421.6 272.08 422.32C259.135 423.233 246.151 423.487 233.18 423.08C221.6 422.71 210.02 422.43 198.47 421.68C187.73 420.99 176.98 420.32 166.34 418.54C164.34 418.2 162.18 418.48 160.27 417.32C159.44 416.82 158.76 417.54 158.27 418.24C155.59 417.98 153.04 418.94 150.37 419.03C139.59 419.37 129.02 417.85 118.37 416.35C109.832 415.031 101.467 412.767 93.4299 409.6C90.6099 408.57 87.8799 406.68 84.5499 407.27ZM21.3699 215.35C20.9499 222.35 21.9999 230.16 23.3699 238.02C24.549 244.611 26.506 251.04 29.1999 257.17C33.4699 266.9 38.8299 275.87 48.6399 281.17C55.7399 285.05 62.9299 285.88 70.4899 282.49C77.4899 279.34 82.4899 273.99 86.7999 267.88C91.2899 261.49 94.0999 254.33 96.4999 246.88C99.3499 238.04 100.57 228.88 101.22 219.75C101.89 209.838 101.217 199.881 99.2199 190.15C96.7099 177.7 92.6399 165.8 84.4699 155.81C78.2499 148.21 70.7699 142.81 60.1599 143.5C54.3566 143.864 48.8429 146.163 44.4999 150.03C36.2099 157.18 31.0799 166.39 27.4999 176.56C23.0713 188.999 20.9927 202.152 21.3699 215.35ZM141.59 283.6C142.093 277.122 141.398 270.606 139.54 264.38C137.54 257.38 134.68 250.81 128.94 246.03C122.46 240.64 116.64 240.26 109.61 244.87C104.04 248.52 100.84 254.04 98.2699 259.87C95.3033 266.528 93.5556 273.664 93.1099 280.94C92.6099 289.81 92.5299 298.73 95.1099 307.42C97.2299 314.59 99.8699 321.42 105.79 326.5C112.45 332.2 119.89 332.04 126.57 326.66C131.98 322.31 135.12 316.38 137.51 310.04C140.771 301.627 142.163 292.605 141.59 283.6ZM86.8199 340.91C87.1199 339.19 86.4399 336.47 85.9999 333.75C84.8399 326.61 82.6899 319.8 77.9999 314.13C73.3099 308.46 66.9999 305.59 59.9999 309.64C57.9282 310.922 56.1496 312.625 54.7799 314.64C50.1799 321 48.9999 328.37 48.5599 335.88C48.2445 342.928 49.4519 349.961 52.0999 356.5C53.7179 361.108 56.4934 365.223 60.1599 368.45C64.6199 372.21 69.7899 372.97 74.6399 370.36C77.5979 368.703 80.0252 366.241 81.6399 363.26C85.3199 356.66 86.5799 349.46 86.8199 340.91ZM228.6 297.33C232.902 297.376 237.065 295.81 240.27 292.94C246.13 287.41 248.41 277.43 243.14 269.52C239.71 264.37 234.66 261.45 228.46 261.99C218.56 262.86 211.88 270.84 211.88 280.79C211.87 290.47 220 297.82 228.6 297.33ZM293.67 260.56C294.006 260.54 294.34 260.497 294.67 260.43C296.79 259.85 298.92 259.32 301 258.64C316.33 253.64 330.15 245.8 343.21 236.48C346.21 234.33 349.21 232.09 352.15 229.9C352.78 229.44 353.15 228.9 352.75 228.14C352.68 227.949 352.571 227.774 352.431 227.626C352.29 227.479 352.121 227.362 351.934 227.282C351.747 227.202 351.545 227.162 351.341 227.163C351.137 227.165 350.936 227.208 350.75 227.29C349.822 227.748 348.944 228.301 348.13 228.94C337.48 236.76 326.45 243.94 314.43 249.51C307.96 252.51 301.55 255.82 294.23 256.39C293.661 256.49 293.115 256.693 292.62 256.99C292.116 257.155 291.699 257.513 291.459 257.985C291.219 258.458 291.176 259.006 291.34 259.51C291.7 260.64 292.74 260.55 293.67 260.56ZM221.18 385.64C222.82 385.64 223.97 385.59 224.18 384.28C224.39 382.97 223.18 382.69 222.18 382.41C221.956 382.365 221.728 382.335 221.5 382.32C217.963 381.748 214.479 380.892 211.08 379.76C206.43 378.484 202.104 376.236 198.387 373.164C194.671 370.092 191.649 366.266 189.52 361.94C189.016 361.031 188.448 360.159 187.82 359.33C187.39 358.72 186.82 358.33 186.05 358.76C185.747 358.936 185.501 359.196 185.342 359.508C185.182 359.82 185.116 360.171 185.15 360.52C185.192 360.983 185.329 361.432 185.55 361.84C188.26 367.27 191.55 372.28 196.37 376.11C202.48 381.02 209.85 383.11 217.3 384.89C218.75 385.24 220.24 385.46 221.18 385.64Z" fill="#4A688E"/>
<path d="M389.281 366.19C378.941 366.38 368.051 366.03 357.191 365.3C344.851 364.47 332.521 363.41 320.191 362.3C309.141 361.3 298.081 360.2 286.971 359.75C276.181 359.33 265.461 360.07 254.711 360.44C243.141 360.83 231.561 360.93 220.121 358.59C216.086 357.91 212.414 355.849 209.731 352.76C208.604 351.504 207.798 349.994 207.381 348.359C206.965 346.723 206.951 345.012 207.341 343.37C208.051 339.843 209.44 336.487 211.431 333.49C215.731 327.15 220.291 321.07 226.431 316.34C231.084 312.626 236.857 310.596 242.811 310.58C253.471 310.58 264.131 310.47 274.811 310.76C282.571 311.072 290.311 311.777 298.001 312.87C305.911 313.87 313.831 314.81 321.791 315.52C330.081 316.26 338.401 316.68 346.711 317.28C348.551 317.41 350.411 317.44 352.261 317.43C366.171 317.38 380.071 317.43 393.971 317.2C405.431 317 416.881 316.55 428.331 316.01C445.594 315.322 462.554 311.241 478.241 304C489.041 299 500.241 294.81 511.391 290.61C511.601 290.53 511.831 290.48 512.051 290.41C519.731 287.77 524.731 289.88 528.171 297.23C528.924 298.685 529.173 300.348 528.881 301.96C527.601 307.82 525.031 312.75 519.611 315.96C513.171 319.659 506.066 322.051 498.701 323C481.431 325.62 464.211 328.47 446.961 331.17C435.304 333.024 423.532 334.059 411.731 334.27C399.231 334.48 386.731 335.27 374.281 336.03C362.051 336.77 349.821 338.21 337.521 337.55C329.201 337.11 320.921 336.2 312.651 335.26C307.251 334.647 301.847 334.07 296.441 333.53C289.991 332.88 283.551 332.2 277.101 331.66C266.361 330.76 255.621 329.92 244.931 332.14C242.11 332.785 239.345 333.651 236.661 334.73C235.984 334.907 235.395 335.323 235.001 335.9C234.851 336.149 234.771 336.434 234.771 336.725C234.771 337.016 234.851 337.301 235.001 337.55C235.145 337.802 235.367 338 235.635 338.114C235.902 338.228 236.199 338.251 236.481 338.18C236.827 338.104 237.163 337.986 237.481 337.83C248.011 333.65 258.961 333.73 269.991 334.65C278.991 335.41 287.991 336.17 296.991 337.02C303.991 337.69 310.991 338.48 318.041 339.27C330.351 340.67 342.651 341.73 355.041 340.64C364.371 339.82 373.761 339.64 383.111 338.97C395.111 338.16 407.161 337.97 419.191 337.51C431.801 337.06 444.281 335.22 456.721 333.14C469.491 331 482.261 328.84 495.101 327.14C498.993 326.575 502.855 325.814 506.671 324.86C509.841 324.11 510.551 324.58 511.431 327.65C513.311 334.12 512.211 340.2 509.161 346.09C506.691 350.86 502.271 352.82 497.561 354.23C488.177 357.19 478.449 358.918 468.621 359.37C460.297 359.749 452.009 360.684 443.811 362.17C436.621 363.38 429.371 364.07 422.141 364.91C411.227 366.059 400.25 366.487 389.281 366.19Z" fill="#439C51"/>
<path d="M84.5508 407.27C87.8808 406.68 90.6108 408.57 93.4608 409.64C101.498 412.807 109.863 415.071 118.401 416.39C129.021 417.89 139.591 419.39 150.401 419.07C153.071 418.98 155.621 418.02 158.301 418.28C158.301 420.22 159.531 420.87 161.161 421.12C165.731 421.8 170.291 422.55 174.871 423.12C185.421 424.47 196.061 424.88 206.651 425.82C206.881 425.82 207.111 425.82 207.341 425.82C225.291 426.39 243.241 427.1 261.191 426.41C269.031 426.1 276.891 425.71 284.701 424.68C288.251 424.22 291.861 424.19 295.431 424.04C301.331 423.79 307.211 423.36 313.111 423.1C322.111 422.7 331.111 421.84 340.111 421.25C351.154 420.542 362.14 419.122 373.001 417C373.171 417 373.391 417.17 373.761 417.34C373.201 418.71 371.911 419.34 370.831 420.09C354.506 431.327 336.864 440.519 318.301 447.46C305.509 452.222 292.33 455.873 278.911 458.37C270.61 459.865 262.24 460.939 253.831 461.59C244.911 462.34 236.011 462.16 227.101 462.12C216.331 462.07 205.681 460.63 195.101 458.85C157.15 452.441 121.412 436.622 91.1508 412.84C88.9008 411.05 86.4408 409.49 84.5508 407.27Z" fill="#384E6B"/>
<path d="M446.55 87.9999C443.55 87.8499 440.74 87.6299 437.97 87.5899C427.55 87.4432 417.147 87.7766 406.76 88.5899C385.217 90.4097 363.815 93.6298 342.69 98.2299C340.77 98.6399 338.85 99.1099 336.97 99.6699C335.36 100.14 334.62 99.5899 334.3 97.9899C333.8 95.5032 333.233 93.0266 332.6 90.5599C330.153 80.8548 325.289 71.9273 318.46 64.6099C316.17 62.1499 316.21 61.8699 319.07 59.9599C328.545 53.731 338.361 48.0355 348.47 42.8999C352.675 40.6978 357.074 38.8868 361.61 37.4899C384.33 30.6232 405.923 33.2166 426.39 45.2699C434.17 49.8599 441 55.4599 445.63 63.3999C449.48 69.9899 452.08 76.9499 451.89 84.7399C451.81 88.0599 451.89 88.0599 448.72 87.9899C447.91 87.9999 447.1 87.9999 446.55 87.9999Z" fill="#4A688E"/>
<path d="M226.562 192.08C226.982 190.73 228.053 189.8 228.883 188.73C231.433 185.44 234.013 182.16 236.643 178.93C237.692 177.545 238.885 176.274 240.202 175.14C253.202 164.58 267.092 155.48 283.462 150.88C291.63 148.743 299.952 147.245 308.353 146.4C325.173 144.4 341.262 148.01 357.302 152.25C361.652 153.4 365.953 154.78 370.233 156.18C373.793 157.34 377.232 158.98 379.342 162.18C382.712 167.34 383.982 173 381.742 179.02C381.052 180.86 379.952 182.57 379.443 184.44C377.793 190.39 373.613 193.98 368.443 196.68C358.947 201.753 348.748 205.383 338.182 207.45C327.052 209.54 315.952 211.86 304.723 213.45C298.404 214.195 292.014 214.091 285.723 213.14C279.873 212.39 274.012 211.78 268.242 210.53C260.316 208.855 252.665 206.074 245.512 202.27C239.192 198.85 232.733 195.79 226.562 192.08ZM293.342 210.88C298.686 210.826 303.99 209.959 309.073 208.31C315.005 206.554 320.218 202.94 323.943 198C326.472 194.384 328.322 190.338 329.402 186.06C332.652 174.86 327.873 166.06 320.703 158.06C320.466 157.803 320.189 157.587 319.883 157.42C316.743 155.69 313.732 153.64 310.432 152.31C305.492 150.31 300.283 148.71 294.883 149.44C288.306 150.19 281.979 152.397 276.362 155.9C274.449 157.011 272.801 158.526 271.533 160.34C268.361 165.052 266.033 170.28 264.652 175.79C263.611 179.839 263.296 184.041 263.723 188.2C265.533 201.75 279.272 212.62 293.342 210.88Z" fill="#F3C6FA"/>
<path d="M465.05 190.23C469.05 187.45 473 184.61 476.05 180.76C481.64 173.76 483.05 166.35 479.37 157.76C474.97 147.55 467.45 142.11 456.72 140.01C451.156 138.914 445.395 139.424 440.11 141.48C436.017 142.864 432.521 145.605 430.2 149.25C427.021 154.235 424.835 159.786 423.76 165.6C422.944 170.431 423.388 175.391 425.05 180C427.53 187.39 432.88 191.52 440.36 193.05C442.05 193.4 443.79 193.49 445.52 193.7C445.63 193.95 445.73 194.21 445.84 194.47C429.278 196.57 412.484 195.979 396.11 192.72C391.68 191.84 387.29 190.89 382.97 189.58C381.63 189.17 381.25 188.65 381.85 187.38C382.45 186.11 382.78 185.01 383.35 183.88C385.256 180.416 386.247 176.523 386.23 172.57C386.17 169.84 387.71 167.81 389.54 165.94C401.6 153.59 415.54 144.69 432.65 140.77C444.88 137.97 457.08 135.77 469.65 135.77C485.87 135.77 501.74 137.62 516.89 143.77C521.31 145.489 525.378 148.004 528.89 151.19C537.16 158.89 534.56 172.81 523.96 177.13C520.41 178.58 516.61 179.13 512.96 180.19C497.96 184.49 482.72 187.95 467.42 191.01C466.77 190.44 465.38 192 465.05 190.23Z" fill="#F3C6FA"/>
<path d="M331.75 104.83C337.132 103.149 342.6 101.753 348.13 100.65C364 97.2199 380 95.1399 396.05 92.9999C405.81 91.6899 415.66 91.5599 425.49 91.2199C433.49 90.9399 441.49 91.3399 449.43 91.5199C465.07 91.8799 479.35 96.9099 492.7 104.8C495.61 106.52 498.27 108.59 499.6 111.9C499.774 112.172 499.883 112.48 499.917 112.801C499.952 113.122 499.912 113.447 499.8 113.75C496.9 113.75 493.91 113.69 490.92 113.75C476.11 114.09 461.37 115.43 446.65 117.09C428.837 119.208 411.228 122.783 394 127.78C387.78 129.54 381.76 131.99 375.67 134.18C372.01 135.5 372.59 135.41 371.6 132.46C369.6 126.52 364.86 123.91 359.35 122.23C358.366 121.884 357.34 121.672 356.3 121.6C351.86 121.54 348.45 119.54 345.3 116.6C341.09 112.66 336.61 109 331.75 104.83Z" fill="#4A688E"/>
<path d="M385.562 165.11C385.252 165.003 384.972 164.821 384.749 164.58C384.526 164.339 384.365 164.047 384.282 163.73C382.052 158.46 377.882 155.17 372.682 153.42C359.752 149.05 346.682 145.3 333.032 143.55C327.402 142.82 321.782 142 316.102 142.33C298.892 143.33 282.102 146.13 266.362 153.7C255.872 158.76 246.442 165.5 237.532 172.93C233.602 176.21 231.212 180.93 227.892 184.76C226.603 186.249 225.411 187.819 224.322 189.46C224.202 189.714 224.031 189.94 223.821 190.127C223.611 190.313 223.366 190.454 223.1 190.543C222.833 190.632 222.552 190.666 222.272 190.643C221.992 190.62 221.72 190.541 221.472 190.41C217.742 189.123 213.805 188.54 209.862 188.69C207.097 188.908 204.355 189.35 201.662 190.01C197.942 190.78 194.482 190.21 191.782 187.27C189.312 184.58 189.642 182.65 192.782 180.9C197.022 178.57 201.782 177.9 206.392 177.02C215.812 175.2 225.222 173.36 234.202 169.76C239.852 167.356 245.032 163.97 249.502 159.76C261.502 149.03 275.502 142.71 291.112 139.48C305.55 136.575 320.323 135.707 335.002 136.9C346.872 137.8 358.672 139.62 369.902 143.96C372.952 145.14 374.432 144.15 373.702 141.13C373.102 138.69 374.512 138.34 376.012 137.77C385.456 133.987 395.144 130.847 405.012 128.37C414.242 126.22 423.442 123.91 432.822 122.47C441.512 121.15 450.222 120.02 458.982 119.21C467.272 118.45 475.582 117.89 483.892 117.34C487.812 117.08 491.762 117.06 495.702 117.12C502.452 117.22 508.592 119.63 514.522 122.55C517.352 123.94 518.202 125.55 518.852 128.97C514.632 127.97 510.542 126.86 506.382 126.05C496.381 124.09 486.201 123.192 476.012 123.37C471.382 123.46 466.742 123.53 462.112 123.5C452.312 123.44 442.812 125.2 433.352 127.61C418.299 131.322 403.493 135.975 389.022 141.54C387.292 142.21 385.602 142.97 383.912 143.71C383.521 143.821 383.161 144.022 382.86 144.296C382.56 144.57 382.328 144.91 382.182 145.29C382.084 145.501 382.045 145.734 382.068 145.966C382.09 146.197 382.174 146.419 382.31 146.607C382.447 146.795 382.631 146.944 382.844 147.038C383.057 147.131 383.291 147.167 383.522 147.14C384.087 147.045 384.636 146.87 385.152 146.62C400.792 140.13 417.032 135.54 433.352 131.16C444.748 128.039 456.54 126.603 468.352 126.9C473.222 127.03 478.092 126.9 482.952 126.9C493.662 126.96 504.132 128.9 514.482 131.37C518.053 132.344 521.497 133.737 524.742 135.52C528.362 137.36 529.742 140.52 529.592 144.42C529.512 146.62 529.002 146.89 527.112 145.59C521.112 141.47 514.442 138.89 507.512 136.9C497.15 133.955 486.434 132.444 475.662 132.41C467.903 132.195 460.139 132.455 452.412 133.19C446.576 134.025 440.794 135.194 435.092 136.69C427.048 138.38 419.226 140.994 411.782 144.48C405.782 147.42 400.642 151.48 395.532 155.71C392.013 158.629 388.682 161.768 385.562 165.11Z" fill="#4A688E"/>
<path d="M342.641 313.33C342.641 310.39 343.641 307.68 344.641 304.98C347.41 296.992 351.982 289.748 358.001 283.81C364.931 277 373.331 272.63 383.001 271.73C391.143 271.019 399.261 273.337 405.801 278.24C415.051 284.9 420.241 294.16 422.621 305.14C423.318 307.573 423.773 310.068 423.981 312.59C414.771 313.49 405.521 313.14 396.291 313.51C380.811 314.12 365.291 314.07 349.851 313.97C347.431 314 345.051 313.47 342.641 313.33Z" fill="#384E6B"/>
<path d="M220.91 39.9999C220.97 34.8299 223.47 30.6999 226.74 26.9999C232.6 20.3599 240.3 16.7999 248.62 14.3299C257.05 11.8559 265.861 10.9409 274.62 11.6299C287.7 12.6299 300.12 15.8499 310.53 24.4599C313.088 26.4757 315.206 28.9937 316.754 31.8589C318.301 34.724 319.246 37.8757 319.53 41.1199C320 46.6099 317.77 51.5099 314.13 55.6899C313.32 56.6199 312.06 57.2599 312.05 58.7499C307.31 55.2499 302.68 51.6199 297.73 48.4099C287.3 41.6399 276.03 36.9499 263.68 35.4699C256.887 34.7383 250.033 34.7819 243.25 35.5999C236.127 36.3797 229.095 37.8397 222.25 39.9599C221.807 40.031 221.357 40.0444 220.91 39.9999Z" fill="#384E6B"/>
<path d="M181.413 61.1599C178.413 60.8299 175.503 61.9699 172.503 61.5899C166.863 60.8899 161.253 60.1599 157.033 55.7499C156.296 55.0173 155.71 54.1467 155.31 53.1877C154.91 52.2288 154.702 51.2003 154.699 50.1612C154.696 49.122 154.898 48.0924 155.294 47.1313C155.689 46.1703 156.27 45.2965 157.003 44.5599C159.102 42.3275 161.626 40.537 164.427 39.2937C167.228 38.0504 170.249 37.3793 173.313 37.3199C177.543 37.1299 181.833 36.7399 186.053 37.8899C187.832 38.3541 189.55 39.0254 191.173 39.8899C195.313 42.1799 197.823 45.5399 197.353 50.5599C195.683 52.5599 193.303 53.5599 191.203 54.8299C187.883 56.8999 185.073 59.6799 181.413 61.1599Z" fill="#384E6B"/>
<path d="M462.852 155.64C462.822 157.859 461.987 159.991 460.502 161.64C460.062 162.14 459.519 162.538 458.91 162.807C458.302 163.077 457.642 163.211 456.976 163.2C456.311 163.19 455.655 163.035 455.056 162.747C454.456 162.458 453.925 162.043 453.502 161.53C450.442 158.2 450.122 154.84 452.592 151.92C454.322 149.87 456.592 149.12 458.712 149.87C459.965 150.2 461.065 150.956 461.82 152.01C462.576 153.063 462.941 154.347 462.852 155.64Z" fill="white"/>
<path d="M447.88 151.58C447.932 152.012 447.897 152.449 447.778 152.868C447.66 153.286 447.459 153.677 447.189 154.017C446.918 154.357 446.583 154.641 446.202 154.851C445.821 155.06 445.402 155.193 444.97 155.24C443.25 155.3 442.05 153.9 441.97 151.72C441.89 149.54 443.24 147.84 444.97 147.81C446.39 147.79 447.81 149.64 447.88 151.58Z" fill="white"/>
<path d="M452.002 145.67C452.501 145.749 452.957 146.004 453.285 146.389C453.613 146.774 453.793 147.264 453.792 147.77C453.827 148.408 453.618 149.036 453.208 149.526C452.797 150.016 452.216 150.332 451.582 150.41C451.32 150.427 451.058 150.386 450.814 150.289C450.57 150.193 450.35 150.044 450.171 149.853C449.991 149.662 449.856 149.433 449.775 149.184C449.694 148.934 449.669 148.67 449.702 148.41C449.762 147.13 450.932 145.68 452.002 145.67Z" fill="#F3C6FA"/>
<path d="M465.051 190.23C465.381 191.98 466.771 190.44 467.481 191C465.891 192.06 464.021 191.75 462.301 192.23C462.601 191.729 463 191.294 463.472 190.95C463.945 190.607 464.482 190.362 465.051 190.23Z" fill="#4A688E"/>
<path d="M445.841 194.47C445.731 194.21 445.631 193.95 445.521 193.7C446.528 193.452 447.59 193.566 448.521 194.02C448.135 194.286 447.695 194.465 447.231 194.542C446.768 194.62 446.294 194.595 445.841 194.47Z" fill="#4A688E"/>
<path d="M21.3705 215.35C20.984 202.182 23.0421 189.057 27.4405 176.64C31.0505 166.47 36.1805 157.26 44.4405 150.11C48.7835 146.243 54.2972 143.944 60.1005 143.58C70.7105 142.89 78.1905 148.29 84.4105 155.89C92.5805 165.89 96.6505 177.78 99.1605 190.23C101.158 199.961 101.831 209.918 101.161 219.83C100.511 229 99.2905 238.12 96.4405 246.96C94.0405 254.37 91.2305 261.53 86.7405 267.96C82.4305 274.07 77.4505 279.42 70.4305 282.57C62.8705 285.96 55.6805 285.13 48.5805 281.25C38.7705 275.91 33.4105 266.94 29.1405 257.25C26.4665 251.084 24.5362 244.622 23.3905 238C22.0005 230.16 21.0005 222.3 21.3705 215.35Z" fill="#384E6B"/>
<path d="M141.59 283.6C142.157 292.592 140.765 301.599 137.51 310C135.12 316.34 131.98 322.27 126.57 326.62C119.89 332 112.45 332.16 105.79 326.46C99.8696 321.4 97.2296 314.55 95.1096 307.38C92.5296 298.69 92.6096 289.77 93.1096 280.9C93.5552 273.624 95.3029 266.488 98.2696 259.83C100.84 254.01 104.04 248.49 109.61 244.83C116.61 240.22 122.46 240.6 128.94 245.99C134.68 250.77 137.53 257.36 139.54 264.34C141.402 270.579 142.097 277.108 141.59 283.6Z" fill="#384E6B"/>
<path d="M86.8208 340.91C86.5808 349.46 85.3208 356.66 81.5908 363.26C79.9761 366.241 77.5488 368.703 74.5908 370.36C69.7408 372.97 64.5908 372.21 60.1108 368.45C56.4625 365.217 53.7046 361.103 52.1008 356.5C49.4528 349.961 48.2454 342.928 48.5608 335.88C49.0108 328.37 50.1808 320.95 54.8008 314.62C56.1705 312.605 57.9491 310.902 60.0208 309.62C67.0208 305.57 73.2208 308.32 78.0208 314.11C82.8208 319.9 84.8608 326.59 86.0208 333.73C86.4408 336.47 87.1208 339.19 86.8208 340.91Z" fill="#384E6B"/>
<path d="M228.603 297.33C220.043 297.82 211.873 290.47 211.883 280.79C211.883 270.79 218.563 262.86 228.463 261.99C234.663 261.45 239.713 264.37 243.143 269.52C248.413 277.43 246.143 287.41 240.273 292.94C237.068 295.81 232.905 297.376 228.603 297.33Z" fill="#384E6B"/>
<path d="M293.67 260.56C292.74 260.56 291.67 260.64 291.35 259.51C291.186 259.006 291.229 258.458 291.469 257.985C291.709 257.513 292.127 257.155 292.63 256.99C293.126 256.693 293.671 256.49 294.24 256.39C301.56 255.82 307.97 252.49 314.44 249.51C326.44 243.98 337.49 236.76 348.14 228.94C348.954 228.301 349.832 227.748 350.76 227.29C350.947 227.208 351.148 227.165 351.351 227.163C351.555 227.162 351.757 227.202 351.944 227.282C352.132 227.362 352.301 227.479 352.441 227.626C352.581 227.774 352.69 227.949 352.76 228.14C353.13 228.88 352.76 229.44 352.16 229.9C349.16 232.09 346.23 234.33 343.22 236.48C330.16 245.8 316.34 253.65 301.01 258.64C298.93 259.32 296.8 259.85 294.68 260.43C294.347 260.498 294.01 260.541 293.67 260.56Z" fill="#070607"/>
<path d="M221.179 385.64C220.239 385.46 218.749 385.24 217.299 384.89C209.849 383.08 202.479 381.02 196.369 376.11C191.589 372.28 188.259 367.27 185.549 361.84C185.328 361.432 185.192 360.982 185.149 360.52C185.115 360.171 185.182 359.82 185.341 359.508C185.501 359.196 185.747 358.936 186.049 358.76C186.789 358.33 187.389 358.76 187.819 359.33C188.447 360.159 189.015 361.031 189.519 361.94C191.648 366.266 194.67 370.092 198.387 373.164C202.104 376.236 206.43 378.484 211.079 379.76C214.478 380.892 217.963 381.748 221.499 382.32C221.728 382.335 221.955 382.365 222.179 382.41C223.179 382.69 224.419 382.86 224.179 384.28C223.939 385.7 222.819 385.67 221.179 385.64Z" fill="#070607"/>
<path d="M293.342 210.88C279.272 212.62 265.532 201.75 263.722 188.17C263.295 184.011 263.61 179.809 264.652 175.76C266.032 170.25 268.36 165.022 271.532 160.31C272.8 158.496 274.448 156.981 276.362 155.87C281.978 152.367 288.305 150.16 294.882 149.41C300.282 148.68 305.492 150.28 310.432 152.28C313.732 153.61 316.742 155.66 319.882 157.39C320.188 157.557 320.465 157.773 320.702 158.03C327.872 166.03 332.652 174.86 329.402 186.03C328.325 190.319 326.475 194.375 323.942 198C320.217 202.94 315.004 206.554 309.072 208.31C303.989 209.959 298.685 210.826 293.342 210.88ZM306.542 172.07C306.54 171.147 306.484 170.226 306.372 169.31C306.323 168.462 306.015 167.65 305.488 166.983C304.962 166.316 304.244 165.827 303.431 165.583C302.617 165.338 301.748 165.35 300.942 165.616C300.135 165.882 299.43 166.389 298.922 167.07C297.057 168.998 296.005 171.568 295.982 174.25C295.968 175.229 296.194 176.196 296.64 177.068C297.087 177.94 297.739 178.689 298.542 179.25C300.972 181.04 303.452 180.58 304.982 177.97C306.081 176.204 306.624 174.148 306.542 172.07ZM283.342 166.63C283.342 170.35 285.072 172.11 288.582 172.01C289.804 171.9 290.941 171.338 291.769 170.433C292.598 169.528 293.059 168.347 293.062 167.12C293.042 165.719 292.497 164.377 291.533 163.36C290.57 162.343 289.259 161.725 287.862 161.63C285.152 161.58 283.332 163.6 283.342 166.63ZM299.712 163.63C300.712 163.4 301.632 162.9 301.632 161.63C301.632 160.21 300.742 159.63 299.402 159.58C299.143 159.539 298.879 159.558 298.629 159.638C298.38 159.717 298.152 159.853 297.965 160.035C297.777 160.218 297.635 160.442 297.549 160.689C297.464 160.937 297.437 161.2 297.472 161.46C297.454 161.757 297.5 162.055 297.606 162.334C297.713 162.612 297.878 162.864 298.09 163.073C298.302 163.283 298.557 163.444 298.836 163.547C299.116 163.65 299.414 163.692 299.712 163.67V163.63Z" fill="#070607"/>
<path d="M306.541 172.07C306.635 174.156 306.098 176.223 305.001 178C303.471 180.61 301.001 181.07 298.561 179.28C297.758 178.719 297.106 177.97 296.659 177.098C296.213 176.226 295.987 175.259 296.001 174.28C296.024 171.598 297.076 169.028 298.941 167.1C299.449 166.42 300.154 165.912 300.961 165.646C301.767 165.38 302.636 165.368 303.449 165.613C304.263 165.857 304.981 166.346 305.507 167.013C306.034 167.68 306.342 168.492 306.391 169.34C306.495 170.246 306.545 171.158 306.541 172.07Z" fill="white"/>
<path d="M283.342 166.63C283.342 163.63 285.152 161.63 287.862 161.63C289.259 161.725 290.57 162.343 291.534 163.36C292.497 164.377 293.042 165.719 293.062 167.12C293.059 168.347 292.598 169.528 291.77 170.433C290.941 171.338 289.804 171.9 288.582 172.01C285.072 172.11 283.362 170.35 283.342 166.63Z" fill="white"/>
<path d="M299.712 163.67C299.42 163.691 299.127 163.651 298.851 163.551C298.576 163.452 298.325 163.296 298.113 163.093C297.902 162.891 297.736 162.646 297.625 162.375C297.515 162.104 297.462 161.813 297.472 161.52C297.437 161.261 297.464 160.997 297.549 160.749C297.635 160.502 297.777 160.278 297.965 160.096C298.152 159.913 298.38 159.777 298.629 159.698C298.879 159.619 299.143 159.599 299.402 159.64C300.742 159.64 301.632 160.27 301.632 161.69C301.632 162.94 300.732 163.44 299.712 163.67Z" fill="#F3C6FA"/>
</g>
<defs>
<clipPath id="clip0">
<rect width="537.34" height="467" fill="white"/>
</clipPath>
</defs>
</svg>
