<svg width="908" height="420" viewBox="0 0 508 120" fill="none" xmlns="http://www.w3.org/2000/svg">
<path d="M28.18 0H30.1C30.8533 0 32.4867 2.27 35 6.81C44.7133 9.25 49.57 11.8367 49.57 14.57V20.42C49.57 21.7 48.9 22.33 47.57 22.33H45.63C44.81 22.33 41.26 21.6933 34.98 20.42H34C32.6652 31.3693 31.9973 42.3896 32 53.42C50.14 58.8867 59.2133 68.28 59.22 81.6C57.1333 97.7467 49.06 105.82 35 105.82V114.55C34.3363 116.041 33.2441 117.301 31.8623 118.17C30.4806 119.039 28.8716 119.478 27.24 119.43C23.8733 119.43 21.2833 113.933 19.47 102.94C9.75 98.2333 4.89 92.7367 4.89 86.45L6.81 85.45C10.5615 86.6664 14.4677 87.3399 18.41 87.45H19.41V84.45C19.41 80.2633 19.0767 73.8067 18.41 65.08C19.11 65.08 19.41 64.76 19.41 64.08C6.47 57.02 0 48.92 0 39.78C0 25.0733 8.08333 14.4067 24.25 7.78C25.07 2.59 26.37 0 28.18 0ZM13.61 38.82C13.61 41.2733 15.5567 43.8633 19.45 46.59H20.45V45.59C20.5754 38.4298 21.2171 31.2879 22.37 24.22C19.8433 24.2467 16.9233 29.1133 13.61 38.82ZM32 68.92V73.81C32 77.1833 32.3333 82.68 33 90.3H36.9C42.08 90.3 44.67 86.75 44.67 79.65C44.67 75.5167 40.4467 71.94 32 68.92Z" fill="#4A688E"/>
<path d="M92.1401 4.18994C117.56 4.18994 134.98 14.8033 144.4 36.0299V41.1799C144.4 66.1866 128.26 81.0466 95.9801 85.7599H88.3001C86.6101 86.0499 85.7701 86.8899 85.7701 88.2899L87.0801 90.9099C85.0401 105.33 82.0401 112.54 78.0801 112.54H73.0001C69.8001 112.54 66.8334 101.083 64.1001 78.1699C64.0745 76.3676 64.5081 74.5884 65.3601 72.9999L62.8301 13.0899C69.2834 7.16327 79.0534 4.19661 92.1401 4.18994ZM81.5801 24.6899C83.1001 32.4299 84.6134 46.2733 86.1201 66.2199H92.8401C112.947 63.3666 123 56.2699 123 44.9299C123 34.7499 114.8 28.0033 98.4001 24.6899L85.0001 23.6499C83.9435 24.2275 82.7793 24.5815 81.5801 24.6899Z" fill="#4A688E"/>
<path d="M158.72 17.71H161.86C166.98 18.99 169.54 24.4566 169.54 34.11V44.23C169.54 57.2033 170.063 74.8866 171.11 97.28H172.59C202.783 98.1533 220.26 98.5866 225.02 98.58L229.65 103.64V109.92C229.65 111.253 227.583 112.94 223.45 114.98H186.45C162.817 114.993 151 111.623 151 104.87V78.34C151 37.92 153.573 17.71 158.72 17.71Z" fill="#4A688E"/>
<path d="M302.071 10.73H306.001C313.914 16.91 317.868 35.3333 317.861 66V68.4C317.861 89.28 306.461 103.18 283.661 110.1L277.001 111.32C247.874 111.32 230.778 93.32 225.711 57.32V16.84C225.711 15.56 227.454 13.9333 230.941 11.96C242.341 11.96 248.041 29.55 248.041 64.73C252.461 82.73 262.128 91.73 277.041 91.73C291.121 88.3966 298.158 78.5667 298.151 62.24L292.831 16.88C294.044 12.7866 297.124 10.7366 302.071 10.73Z" fill="#4A688E"/>
<path d="M363.24 8.90002C367.671 9.74484 372.17 10.1833 376.68 10.21H401C410.88 10.21 415.824 14.1367 415.83 21.99C412.69 28.15 409.084 31.2334 405.01 31.24C395.824 30.36 388.64 29.92 383.46 29.92H374V41.7C374 50.78 374.467 57.78 375.4 62.7C374.425 68.784 373.957 74.9385 374 81.1C374 83.26 374.467 89.8634 375.4 100.91C372.26 107.01 368.654 110.063 364.58 110.07C358.82 110.07 355.214 106.113 353.76 98.2V72C353.76 62.8067 354.227 48.7867 355.16 29.94H343C324.1 27.6667 314.65 24.5867 314.65 20.7V15.45C316.104 11.9634 319.244 10.2167 324.07 10.21H351.07C355.166 10.2793 359.254 9.83922 363.24 8.90002Z" fill="#4A688E"/>
<path d="M459.22 21.11C474.807 21.11 489.317 31.0567 502.75 50.95C506.083 61.83 507.75 68.8666 507.75 72.06C507.75 101.893 492.417 116.813 461.75 116.82C441.25 116.82 426.333 107.28 417 88.2C413.73 81.6423 412.018 74.4178 412 67.09C412 47.8966 419.443 34.6367 434.33 27.31C449.637 23.1833 457.933 21.1167 459.22 21.11ZM435.84 69.62C439.1 88 448.61 97.1867 464.37 97.18C479.37 97.18 486.873 89.36 486.88 73.72C486.88 59.0533 477.02 49.5433 457.3 45.19C443.687 48.7966 436.883 55.5733 436.89 65.52C436.183 66.7694 435.82 68.1844 435.84 69.62Z" fill="#4A688E"/>
</svg>
